<?xml version="1.0" encoding="UTF-8"?>
<svg id="Layer_1" xmlns="http://www.w3.org/2000/svg" version="1.1" viewBox="0 0 717.58 632.23">
  <!-- Generator: Adobe Illustrator 30.6.0, SVG Export Plug-In . SVG Version: 2.1.4 Build 109)  -->
  <defs>
    <style>
      .st0 {
        fill: #fe4593;
      }

      .st1 {
        fill: #fefefe;
      }

      .st2 {
        fill: #fe54ad;
      }
    </style>
  </defs>
  <path class="st2" d="M510.6,55.69l.89.67c1.31,3.08,5.4,7.32,8.24,7.29l.35.98c2.38,3.06,5.19,6.46,8.87,7.99l1.8,1.86c-.27,2.27,1.5,3.36,2.86,5.11l15.26,19.75c.96,1.24,1.31,2.25,2.79,2.38.33.03.83.49,1.01.72-.17,2.75,2.23,2.05,4.19,2.72,36.38,12.36,59.78,29.76,86.31,56.89,2.48,2.53,4.16,6.92,7.35,7.82.38.11.82.85,1.45.66-.5,1.48.16,2.37,1.13,3.6,21.18,26.65,44.47,72.82,53.76,105.35l6.73,23.6c8.1,28.39-6.84,45.37-5.69,49.22,3.62,12.1,5.7,24.09,6.34,36.64l.83,16.3c1.07,20.91-1.03,41.39-5.64,61.92-16.14,71.97-72.72,112.41-140.14,134.2-48.77,15.76-107.89,25.42-158.99,27.77l-20.19.93-63.33.28-20.13-1.12-14.98-1.01c-55.68-3.77-123.82-16.54-174.86-39.87-35.77-16.35-67.32-40.91-88.37-74.48-17.27-27.55-24.42-58.87-26.31-91.13-1.38-23.63.94-58.98,10.7-79,2.11-4.33,2.97-6.82,1.1-11.61-5.91-15.18-3.59-45.82.71-63.48,7.39-30.39,21.83-58.17,41.96-81.98,1.54-1.82,3.21-2.93,3.25-5.04,0-.34.52-.83.75-1.07.41-.28.76-.63,1.02-1.06.24-.25.62-.72.99-.78,2.66-.47,4.83-2.58,5.38-5.23.07-.35.3-.71.54-.96.48-.21.86-.59,1.06-1.08.28-.29.61-.68.89-.96,1.09-.17,1.9-.92,2.05-2.03.99-.98,2.05-1.97,2.98-2.86.73.09,1.72-.06,2.42-.66,6.42-5.56,12.61-10.78,19.53-15.87.76-.56.73-1.16.25-1.79.46.25,1.14-.27.84-.85,11.58-5.07,24.35-15.53,36.3-21.64l19.16-9.8,5.31-2.62,18.13-7.83c6.91-13.97,15.69-25.85,25.89-37.25,1.62-1.81,3.29-3.5,3.21-5.84,1.56-1.63,2.77-3.86,5.09-4.68.69-.02,2.32-.24,3.04-1.05,6.22-7.06,13.22-11.77,20.82-17.42,28.22-20.97,61.28-33.09,96.68-36.05l45.25-.12c46.49,2.95,89.73,20.92,126.35,49.24,2.49,1.93,4.21,3.98,6.83,4.39ZM228.89,72.85c-1.09,1.06-1.66,1.94-3.29,2.53-4.12,1.48-6.53,5.96-9.55,9.52-12.29,14.46-21.05,30.82-27.29,48.62-10.29,29.34-5.38,60.59,14.59,84.42,1.03,1.23,1.84,2.22,3.49,2.23.89,1.04,1.93,2.17,2.84,3.09-.11,1.39.43,2.67,1.54,3.73,29.56,28.12,69,40.91,109.42,44.14,41.71,3.33,87.32-6.58,120.73-31.78,5.22-3.94,10.63-7.43,13.7-12.69.13-.23.05-.73.57-.85,2.2-.49,3.35-2.5,4.94-4.36,9.05-10.59,15.84-22.45,20.07-35.71,1.22-3.82,3.53-6.72,6.42-7.56,3.85-1.12,7.24-1.04,11.08,1.41s5.11,9.63,3.09,14.58c-5.32,13.07-11.35,25.66-20.23,36.58l-15.64,16.64c-17.88,16.62-39.61,27.36-62.59,35.23-8.12,2.78-15.6,4.93-24.02,6.05l-26.26,3.49-34.42-.14c-41.73-3.27-79.75-16.68-112.85-41.99-2.64-2.02-4.21-5.56-7.77-5.26.14-.52-.31-.99-.61-1.1-.1-2.21-2.05-3.96-4.18-4.38-1.46-.29-2.49-1.16-2.85-2.63-1.24-2.91-3.07-6.24-6.12-7.28-.24-.27-.64-.88-1.22-.72.26-3.03-1.89-4.9-3.59-7.43-10.71-15.88-16.36-34.37-16.29-53.65.03-9.3-.28-17.87,2.2-26.83.62-2.26,1.91-7.2-1.15-8.05-5.43,1.77-14.07,7.44-15.32,10.68-.11.29-.73.66-.56,1.28-1.71-.09-3.42.64-4.93,2.29-43.75,47.72-48.56,116.08-9.78,169.1,2.08,2.84,3.56,5.58,6.53,6.78l.93.75c1.2,3.4,3.98,6.61,7.43,7.96l1.64,2.16c2.58,3.4,6.22,7.21,10.19,9.02.23.21.69.69.32,1.25,16.53,15.3,38.53,26.09,60.47,34.78,4.66,5.15,5.08,12.71.38,16.72-2.03,1.73-6.03,3.73-9.51,2.43-21.65-8.08-41.66-19.09-60.04-33.05l-6.6-5.51c-1.91-1.59-3.47-4.06-6.33-3.61.04-.5-.39-.96-.63-1.21-.45-1.52-1.61-2.86-3.01-4.18-6.16-5.78-11.56-11.74-16.47-18.54-.31-.44-1.68-.4-2.01-.13.34-.52-.28-1.26-.86-.94.42-2.28-1.09-3.81-2.41-5.65-13.29-18.45-21.83-39.08-25.58-61.48-3.74-22.33-2.25-53.34,5.21-73.82l3.97-10.88c-1.17-.24-2.14-1.01-2.59-1.22-.43-.19-.75,1.77-.4,1.93l-.99.95-.99,1.13-.98.89c-.34.31-.81.65-1.05,1.06-.69,1.17-1.63,2.46-3.02,2.88-.58.18-1.45.05-2.06.52-.78.59-1.08,1.58-.89,2.6-.64.65-.95,1.52-1.94,1.68-3.09.52-4.25,3.49-6.43,5.97-22.8,25.97-37.75,57.16-42.18,91.63-2.36,18.38,1.58,40.58,14.2,53.15.45-.02,1.02.21,1.27.46-.05.66.05,1.48.48,2.02.61.77,1.61.92,2.54.99s1.75.96,1.83,1.81c.1,1.11.53,1.84,1.66,2.64l15.75,11.25c6.18,4.41,11.25,10.53,12.97,18.01l3.52,15.36c1.35,5.89-.24,33.13,10.15,37.96.39.18,1.02.43,1.09.97.08.64.12,1.43.54,2,.55.75,1.58.97,2.47.99.29,0,.74.53.78.87.53,3.82,14.28,8.33,23.22,5.11l20.57-7.39c9.98-3.58,18.37-5.78,28.66-5.02,15.74,1.15,30.07,5.82,42.75,15.54,1.87,1.43,3.81,3.06,6.2,2.69,1.33,1.16,3.31,2.33,3.75,4.1s1.23,2.8,3.17,3.04l.83,1.09c-.06,1.98,1.09,3.75,3.09,4.1.25.28.67.75,1.37.69-.75,2.33.71,3.9,1.82,6.02,7.1,13.48,9.98,28.91,5.15,43.49-2.53,7.65-5.08,14.76-5.86,22.77-2.05,21.08,11.15,40.08,25.99,36.4,8.95-2.22,14.77-9.54,16.73-18.09,3.4-14.82-6.46-31.39,6.71-52.41.22-.19.86-.51,1.13-.64,1.97-.43,3.74-2.32,4.33-4.28.13-.25.63-.72.56-1.24,8.83-4.49,18.54-6.89,29.15-5.73,22.02,2.42,36.59,22.48,54.95,9.01l13.04-19.24c.42-.1.86-.43.71-.93,1.39.23,2.46-.53,3.59-1.5,9.78-8.37,21.66-11.61,34.8-10.44s23.76,7.92,32.89,16.91c18.06,17.78,28.84,48.65,37.96,50.32.55.1.63.56.82.89,2.48,4.25,8.2,5.49,13.67,6.42,7.87,1.35,21.29-3.5,23.75-9.66l.77-.51c7.98-5.31,11.87-19.78,6.4-29.99-10.5-19.61-8.93-44.02,6.08-60.65,8.44-9.36,18.96-15.85,31.29-16.8,24.03-1.85,30.57,11.91,34.35,12.01.74.02,1.25.57,1.76.87.3,2.53,2.44,3.09,5,3.23,4.41.23,8.04-1.05,10.2-5.06,3.73-6.94,3.22-14.79,1.27-22.57-4.17-16.63-3-33.96,6.79-48.17,13.37-19.4,35.42-13.97,44.39-21.76,14.42-12.53,5.7-38.06-.11-56.15-11.36-35.36-28.29-68.35-51.13-97.51-2.36-3.02-4.2-6.01-7.2-7.14l-1.33-.5c.17-1.37-.41-2.38-1.49-3.46l-10.55-10.59c-1.24-1.24-2.33-2.18-3.86-2.12-.27-.28-.41-.7-.52-1.05-1.52-4.56-29.46-24.31-38.64-27.88-.57,1.12-1.25,1.78-2.8,2.13,10.91,22.65,17.75,47.01,19.64,72.97l.12,29.74-.74,9.17c-3.56,29.57-13.15,57.68-29.07,82.66l-15.8,21.32c-1.24,1.67-3.61,2.51-3.26,4.85.18,1.16-1.18,1.44-1.57,2.04-2.01-.47-2.99,1.51-4.41,2.9-1.75,1.71-4.3,2.9-3.97,5.36-.52.31-1.22,1.36-1.54,1.74-3.28-.49-4.66,2.85-6.92,4.45l-23.97,16.93c-35.58,21.07-71.34,30.24-111.83,35.33-7.94,1-15.55,1.43-23.59,1.51l-6.13.06-27.82-.55-10.13-.94-9.94-.95c-17.11-1.63-33.23-5.87-50.01-9.96-3.98-.97-6.52-5.13-6.94-8.61-.38-3.09,1.42-9.46,4.68-9.91,3.15.43,5.82.37,8.32-1.6,32.34,9.99,69.72,13.24,103.52,11.91,59.37-5.13,111.84-20.88,154.41-63.55,1.4-1.4,2.25-2.4,1.9-4.3.52-.55,1.05-1.51,1.99-1.57,1.8-.11,2.41-1.21,3.71-2.78,21.95-26.51,34.65-59.02,37.65-93.41,2.9-33.28-3.44-63.29-16.83-93.56-7.99-18.07-17.95-34.34-30.15-49.75-2.02-2.55-3.47-5.28-6.5-5.89-1.17-.24-2.46-1.64-2.7-2.83-.5-2.51-2.66-4.32-5.1-5l-.99-.98c.04-2.28-1.76-4.08-4.03-4.03l-1.05-.89c.07-1.12-.45-2.47-1.63-3.43-16.08-13.08-32.27-24.99-51.53-33.46-70.62-31.04-155.62-26.86-213.87,26.6-1.81,1.67-3.56,2.89-3.64,5.49ZM62.98,521.4c-.54.53.24,1.43.89.89-.47,2.03.48,2.91,1.79,4.28,15.49,16.23,33.04,29.51,53.42,39.56,26.95,13.29,55.04,22.13,84.43,28.66,11.92,2.65,22.89,5.17,34.91,6.85l41.16,5.74,20.52,1.76,17.05.89,30.42.85,7.21.03c3.86.02,7.29.39,11.25.25l26.34-.92,22.99-1.12c58.37-2.84,137.14-17.36,189.47-44.39,11.6-5.99,36.68-21.9,39.94-29.11.57-1.26,1.46-2.79,2.77-3.06.39-.08,1.06,0,1.5-.24.61-.34.83-1.17.47-1.89.69-.95,1.04-1.29,2.17-1.64,2.63-.82,5.03-3.36,5.16-6.2.22-.19.55-.7,1.08-.38,7.2-6.55,11.95-15.48,17.19-24.18l5.24-10.88c15.08-36.86,16.5-79.51,8.44-118.54-.27-1.3-.94-2.5-1.45-3.19-.87-1.16-2.54-.17-3.85-.09-12.75.8-22.67,4.06-27.01,15.91-5.59,15.23,3.25,30.9,1.08,48-1.5,11.76-7.55,22.58-18.47,27.58s-22.71,3.79-31.8-2.73c-1.71-1.23-2.55-3.01-4.67-2.49-.24-.29-.56-.88-.53-1.26-5.36-6.43-15.23-9.17-23.31-5.89-18.81,7.64-23.47,27.37-14.63,45.63,5.22,10.78,5.6,22.43,1.71,33.6-3.4,9.77-6.98,13.06-10.14,20.1-.49,1.26-1.85,1.84-2.65,2.64-1.75-.36-2.69.53-3.95,1.6-7.06,6.01-15.33,9.59-24.42,11.61l-14.04-.03c-3.6,0-6.49-1.21-9.69-2.15-8.27-2.43-15.63-6.3-21.09-13.13-.93-1.16-2.24-1.89-3.69-1.74l-1.64-1.96c-.74-4.07-3.65-7.33-5.78-11.14-5.28-9.44-15.1-28.2-20.14-30.15-1.69-.66-4.34-2.82-4.83-4.74-1.01-4.01-14.82-11.21-27.31-7.89-6.24,1.66-12.44,7.3-16.35,14.4-7.47,13.58-20.52,22.09-36.56,21.46-12.08-.48-22.58-5.1-32.99-10.79-6.83-3.73-15.46-5.49-22.29-1.49-12.39,7.27-4.59,27.16-7.03,42.9-1.05,6.8-3.28,13.29-6.82,19.04-1.35,2.2-2.85,3.93-2.68,6.45-1.17,1.35-2.09,3.43-4.12,3.65-3.65.38-17.41,15.3-40.06,7.45-12.35-4.28-21.37-12.61-26.67-24.6-8.6-19.45-5.92-39.16.93-59.09,2.36-6.86,3.22-13.86.8-20.57-4.37-12.11-12.9-20.87-24-27.02-15.27-8.46-32.62-9.64-48.79-2.48-21.34,9.45-41.71,13.55-61.72-.86-1.63-1.17-2.43-3.04-4.63-2.5l-1.94-1.96c.09-2.42-1.68-4.04-3.05-6.05-15.59-22.85-8.58-47.74-14.86-59.29-5.44-9.99-15.21-16.65-24.94-21.83-2.74-1.46-4.43-3.86-8.04-3.76-1.88,3.95-3.26,8.34-4.02,12.92-7.73,46.33-1.71,100.99,26.85,138.95,2.93,3.89,5.06,8.04,9.45,9.78Z"/>
  <path class="st0" d="M59.85,181.59c-.04,2.12-1.71,3.22-3.25,5.04-20.14,23.81-34.57,51.6-41.96,81.98-4.3,17.67-6.62,48.3-.71,63.48,1.87,4.79,1.01,7.28-1.1,11.61-9.76,20.01-12.08,55.37-10.7,79,1.89,32.26,9.04,63.58,26.31,91.13,21.05,33.58,52.6,58.13,88.37,74.48,51.04,23.33,119.18,36.1,174.86,39.87l14.98,1.01,20.13,1.12,63.33-.28,20.19-.93c51.1-2.35,110.22-12,158.99-27.77,67.42-21.79,124-62.23,140.14-134.2,4.6-20.54,6.71-41.02,5.64-61.92l-.83-16.3c-.64-12.55-2.72-24.54-6.34-36.64-1.15-3.85,13.79-20.83,5.69-49.22l-6.73-23.6c-9.28-32.54-32.58-78.71-53.76-105.35-.97-1.22-1.63-2.11-1.13-3.6l19.79,27.99c17.33,28.35,30.27,58.17,39.65,90.08,6.39,21.72,10.66,41.65-2.02,61.23,3.5,15.51,6.7,30.62,7.3,46.72.93,25-.19,48.9-6.03,73.14-8.52,35.37-27.64,66.09-55.86,89.03-33.23,27.02-72.91,42.02-114.16,52.73l-59.74,12.24-69.78,7.32-20.99,1.03-57.37.21-25.14-.96-12.93-1.04-12.94-1.02c-29.9-2.36-58.74-7.19-87.99-13.81-26.49-6-51.39-13.82-76.1-24.9-26.75-11.99-50.39-28.21-70.42-49.43C10.38,502.04-1.53,451.43.15,398.53c.68-21.22,4.25-41.74,13.6-60.94-3.03-7.22-4.72-14.26-4.72-22.07v-23.73c4.8-42.92,22.31-79.06,50.82-110.2Z"/>
  <path class="st0" d="M510.6,55.69c-2.62-.4-4.34-2.46-6.83-4.39-36.61-28.33-79.85-46.29-126.35-49.24l-45.25.12c-35.4,2.97-68.46,15.08-96.68,36.05-7.6,5.65-14.59,10.36-20.82,17.42-.72.82-2.35,1.03-3.04,1.05C244.54,23.73,287.76,3.49,334.93.03l39.53-.03c50.68,3.05,98.24,22.88,136.15,55.69Z"/>
  <path class="st0" d="M98.55,146.38c23.79-17.43,49.67-32.11,77.5-43.12,8.3-15.95,18.62-29.49,30.5-41.86.08,2.34-1.6,4.03-3.21,5.84-10.2,11.41-18.99,23.29-25.89,37.25l-18.13,7.83-5.31,2.62-19.16,9.8c-11.95,6.11-24.72,16.58-36.3,21.64Z"/>
  <path class="st0" d="M650.52,169.86c-3.18-.9-4.87-5.28-7.35-7.82-26.53-27.13-49.92-44.53-86.31-56.89-1.96-.67-4.35.03-4.19-2.72,36.8,10.28,70.1,33.59,95.14,62.83,1.44,1.68,2.55,2.81,2.7,4.59Z"/>
  <path class="st0" d="M551.67,101.72c-1.48-.13-1.83-1.14-2.79-2.38l-15.26-19.75c-1.35-1.75-3.13-2.84-2.86-5.11,7.45,7.69,16.71,18.02,20.91,27.24Z"/>
  <path class="st0" d="M528.96,72.62c-3.68-1.52-6.5-4.92-8.87-7.99,3.74,1.52,6.16,5.19,8.87,7.99Z"/>
  <path class="st0" d="M97.7,147.22c.48.63.51,1.23-.25,1.79-6.92,5.09-13.11,10.31-19.53,15.87-.7.6-1.69.76-2.42.66,6.92-6.64,14.32-12.96,22.19-18.33Z"/>
  <path class="st0" d="M68,173.44c-.55,2.65-2.72,4.76-5.38,5.23,1.1-2.33,2.97-4.29,5.38-5.23Z"/>
  <path class="st0" d="M519.74,63.65c-2.84.03-6.93-4.21-8.24-7.29,2.87,2.17,7.05,3.95,8.24,7.29Z"/>
  <path class="st0" d="M60.61,180.51l1.02-1.06c-.27.43-.61.78-1.02,1.06Z"/>
  <path class="st0" d="M70.48,170.44l2.05-2.03c-.15,1.11-.96,1.86-2.05,2.03Z"/>
  <path class="st0" d="M68.54,172.48l1.06-1.08c-.2.49-.58.87-1.06,1.08Z"/>
  <path class="st1" d="M570.4,135.58c.19-.08-.38-.04-1.79.19,1.55-.34,2.23-1,2.8-2.13-.3,1.04-.29,1.65-1.01,1.94Z"/>
  <path class="st0" d="M644.77,535.61c-3.25,7.21-28.33,23.11-39.94,29.11-52.33,27.03-131.09,41.55-189.47,44.39l-22.99,1.12-26.34.92c-3.96.14-7.39-.23-11.25-.25l-7.21-.03-30.42-.85-17.05-.89-20.52-1.76-41.16-5.74c-12.02-1.68-22.99-4.2-34.91-6.85-29.39-6.53-57.48-15.37-84.43-28.66-20.38-10.05-37.93-23.33-53.42-39.56-1.31-1.38-2.26-2.25-1.79-4.28,18.55,20.79,41.43,36.45,67.36,47.68,45.33,19.63,111.27,33.44,160.29,36.59l11.14.72,13.97,1.02,24.67.63c12.74.33,25.43.06,38.34-.21l20.03-.42,13.99-1.01,11.11-.79c30.52-2.17,59.97-6.62,89.87-12.86,43.96-9.19,89.24-24.5,123.83-53.23,2.24-1.86,3.75-4.22,6.3-4.79Z"/>
  <path class="st0" d="M657.92,522.2c.02-2.26,1.62-3.61,3.02-5.38,16.47-20.9,24.65-44.2,28.68-70.48l1.31-13.81.81-13.02c1.11-17.89-.5-35.39-5.56-52.65l-13.88,2.15c-8.91,1.38-13.85,8.41-15.2,17.15-2.83,18.33,8.5,36.39-2.28,57.45-4.89,9.55-13.85,16.1-23.25,17.57-11.28,1.76-22.21-1.55-28.95-9.58,2.11-.53,2.95,1.26,4.67,2.49,9.08,6.52,21.4,7.49,31.8,2.73,10.92-5,16.97-15.82,18.47-27.58,2.18-17.11-6.66-32.77-1.08-48,4.35-11.85,14.26-15.12,27.01-15.91,1.31-.08,2.98-1.07,3.85.09.52.69,1.19,1.89,1.45,3.19,8.06,39.03,6.65,81.68-8.44,118.54l-5.24,10.88c-5.24,8.71-9.99,17.64-17.19,24.18Z"/>
  <path class="st0" d="M197.47,244.78c3.56-.3,5.13,3.24,7.77,5.26,33.1,25.31,71.13,38.72,112.85,41.99l34.42.14,26.26-3.49c8.42-1.12,15.9-3.27,24.02-6.05,22.98-7.88,44.71-18.62,62.59-35.23l15.64-16.64c8.88-10.92,14.91-23.51,20.23-36.58,2.02-4.95.86-12.05-3.09-14.58s-7.23-2.53-11.08-1.41c-2.89.84-5.2,3.74-6.42,7.56-4.22,13.26-11.02,25.12-20.07,35.71-1.59,1.86-2.74,3.86-4.94,4.36.35-1.33,1.13-2.67,2.33-3.93,10.53-11.18,17.06-24.49,22.21-38.93,2.47-6.95,11.18-8.72,17.01-5.64,6.43,3.39,8.25,10.32,5.6,17.45-23.18,62.47-85.5,94.21-149.38,99.34l-34.31-.1c-44.26-3.79-89.85-19-121.64-49.21Z"/>
  <path class="st0" d="M528.01,368.53c-15.75,15.14-34.49,25.97-54.74,35.82-34.22,14.26-70.24,22.78-107.52,24l-38.82-.3c-23.82-1.72-46.68-5.7-69.5-12.22-6.83-1.95-9.71-9.5-7.84-14.92,2.65-7.66,9.18-9.64,16.54-7.65,65.03,17.6,134.51,15.28,196.6-11.6,23.59-10.22,43.65-25.06,60.83-43.32.34,1.9-.51,2.9-1.9,4.3-42.57,42.67-95.04,58.42-154.41,63.55-33.8,1.33-71.18-1.91-103.52-11.91-2.5,1.97-5.17,2.03-8.32,1.6-3.26.45-5.06,6.82-4.68,9.91.43,3.48,2.96,7.64,6.94,8.61,16.78,4.09,32.9,8.33,50.01,9.96l9.94.95,10.13.94,27.82.55,6.13-.06c8.04-.08,15.65-.51,23.59-1.51,40.49-5.09,76.25-14.27,111.83-35.33l23.97-16.93c2.26-1.59,3.64-4.93,6.92-4.45Z"/>
  <path class="st0" d="M455.09,226.66c-3.07,5.27-8.48,8.75-13.7,12.69-33.41,25.2-79.01,35.11-120.73,31.78-40.43-3.23-79.86-16.02-109.42-44.14-1.11-1.06-1.66-2.33-1.54-3.73,15.23,15.33,33.47,26.47,54.37,34.03,29.16,10.55,60.1,14.61,90.88,11.8,34.75-3.17,69.53-15.53,95.22-38.96,1.73-1.58,2.82-3.24,4.93-3.48Z"/>
  <path class="st0" d="M499.57,77.66c-18.43-15.62-38.29-29.5-61.42-38.62-22.32-8.8-45.4-13.9-69.39-15.31l-29.9.23c-41.68,2.77-80.45,20.09-109.97,48.9.08-2.6,1.83-3.82,3.64-5.49,58.25-53.46,143.24-57.64,213.87-26.6,19.27,8.47,35.46,20.38,51.53,33.46,1.17.95,1.7,2.31,1.63,3.43Z"/>
  <path class="st0" d="M618.61,434.37c3.05,1.82,6.03,2.2,9.25.93,9.14-3.6,7.53-16.28,4.98-27.71-3.23-14.48-2.11-28.97,4.85-42.01,7.04-13.18,20.08-20.44,34.76-22.13,6.07-.7,12.53-3.06,15.83-8.24,4.78-7.5,5.29-16.5,3.22-25.5-9.34-40.53-26.48-78.49-50.3-112.52l-13.4-17.94c3,1.13,4.84,4.12,7.2,7.14,22.84,29.17,39.76,62.15,51.13,97.51,5.81,18.1,14.53,43.62.11,56.15-8.96,7.79-31.01,2.36-44.39,21.76-9.8,14.21-10.96,31.54-6.79,48.17,1.95,7.78,2.47,15.63-1.27,22.57-2.15,4.01-5.79,5.29-10.2,5.06-2.57-.13-4.7-.7-5-3.23Z"/>
  <path class="st0" d="M525.55,336.78c23.42-27.98,37.4-62.56,39.71-99.4l.04-24.62c-3.63-44.53-23.18-87.95-51.87-121.37,3.03.62,4.48,3.34,6.5,5.89,12.2,15.41,22.16,31.68,30.15,49.75,13.38,30.28,19.72,60.28,16.83,93.56-2.99,34.39-15.7,66.9-37.65,93.41-1.3,1.57-1.91,2.66-3.71,2.78Z"/>
  <path class="st0" d="M570.4,135.58c34.19,70.89,25.14,159.06-28.01,218.57-1.1,1.23-1.71,1.99-2.89,2.34-.36-2.35,2.02-3.19,3.26-4.85l15.8-21.32c15.92-24.98,25.51-53.1,29.07-82.66l.74-9.17-.12-29.74c-1.89-25.96-8.73-50.31-19.64-72.97,1.41-.23,1.98-.27,1.79-.19Z"/>
  <path class="st0" d="M610.06,161.52c-.94-.25-1.92-.61-2.94-1.5-11.21-9.77-23.03-18.69-36.72-24.44.72-.29.71-.9,1.01-1.94,9.19,3.57,37.12,23.32,38.64,27.88Z"/>
  <path class="st0" d="M81.59,450.68c-7.52-7.61-11.86-17.83-14.2-28.78l-2.16-23.31c-.71-7.65-2.69-14.26-8.05-19.6-7.45-7.43-15.78-12.98-25.72-17.79-3,11.86-5.84,23.26-5.7,35.3l.35,30.61c3.12,36.41,13.44,67.04,36.88,94.29-4.39-1.74-6.52-5.89-9.45-9.78-28.56-37.96-34.58-92.62-26.85-138.95.76-4.58,2.14-8.97,4.02-12.92,3.6-.1,5.29,2.3,8.04,3.76,9.73,5.18,19.5,11.85,24.94,21.83,6.28,11.54-.72,36.44,14.86,59.29,1.37,2.01,3.14,3.64,3.05,6.05Z"/>
  <path class="st0" d="M147.78,144.67c-47.17,45.58-52.7,120.9-11.3,173.02,1.44,1.81,2.71,3.24,3.12,5.15-2.97-1.2-4.45-3.93-6.53-6.78-38.78-53.02-33.97-121.38,9.78-169.1,1.52-1.66,3.22-2.38,4.93-2.29Z"/>
  <path class="st0" d="M443.79,494.59c-9.76-5.8-20.18-10.38-30.77-4.64-5.16,2.8-9.26,7.63-12.2,12.78-7.11,12.47-18.61,20.58-33.63,21.52-12.25.77-24.36-3.97-35.16-9.96s-23.13-7.18-27.39,3.26c-2.42,5.93-2.41,11.97-1.53,18.31,2.14,15.45-1.42,31.35-11.34,42.82-.18-2.51,1.33-4.25,2.68-6.45,3.54-5.75,5.77-12.24,6.82-19.04,2.43-15.74-5.37-35.63,7.03-42.9,6.82-4.01,15.46-2.24,22.29,1.49,10.4,5.68,20.91,10.31,32.99,10.79,16.04.64,29.08-7.87,36.56-21.46,3.91-7.1,10.11-12.74,16.35-14.4,12.5-3.32,26.3,3.88,27.31,7.89Z"/>
  <path class="st0" d="M115.51,330.75c-21.94-27.53-33.17-62.24-31.87-98.15,1.15-31.84,11.01-50.52,11.04-51.54.02-.52.05-1.32-.97-1.43-.36-.16-.03-2.12.4-1.93.46.21,1.42.98,2.59,1.22l-3.97,10.88c-7.47,20.48-8.95,51.49-5.21,73.82,3.75,22.41,12.29,43.04,25.58,61.48,1.32,1.84,2.83,3.37,2.41,5.65Z"/>
  <path class="st0" d="M81.8,191.33c-.37,1.47-1.44,2.37-2.65,3.76-16.31,18.82-29.64,39.78-37.3,63.51-9.28,28.75-12.57,59.4,5.55,83.48-12.62-12.57-16.56-34.77-14.2-53.15,4.42-34.48,19.38-65.66,42.18-91.63,2.18-2.48,3.34-5.45,6.43-5.97Z"/>
  <path class="st0" d="M225.6,75.38c-.21,1.16-.93,1.93-2.05,3.16-15.17,16.8-27.27,36.09-33.89,57.93l-3.75,19.07-.21,16.06c1.34,18.53,9.54,35.01,21.15,48.56-1.65,0-2.46-1-3.49-2.23-19.98-23.84-24.88-55.08-14.59-84.42,6.24-17.8,15-34.16,27.29-48.62,3.02-3.56,5.43-8.04,9.55-9.52Z"/>
  <path class="st0" d="M223.84,448.35c-2.39.37-4.33-1.26-6.2-2.69-12.68-9.72-27.01-14.39-42.75-15.54-10.29-.75-18.69,1.44-28.66,5.02l-20.57,7.39c-8.95,3.21-22.69-1.29-23.22-5.11,7.23,4.26,15.76,5.92,24.03,2.92l19.07-6.9c10.44-3.78,20.87-5.74,32.31-4.85,17.14,1.33,33.47,8.87,46,19.75Z"/>
  <path class="st0" d="M287.66,582.31c-7.39,8-18.47,12.21-30.1,11.16-19.77-1.8-35.52-15.81-41.01-34.84-4.76-16.47-3.28-33.43,2.91-49.47,4.32-11.2,4.16-22.45-2.91-32.61-15.41-22.12-44.37-29.66-68.78-17.98-22.73,10.87-46.73,11.75-64.21-5.93,2.2-.53,3,1.33,4.63,2.5,20.01,14.41,40.37,10.31,61.72.86,16.17-7.16,33.52-5.97,48.79,2.48,11.1,6.15,19.63,14.91,24,27.02,2.42,6.7,1.55,13.71-.8,20.57-6.85,19.93-9.53,39.64-.93,59.09,5.3,11.99,14.32,20.32,26.67,24.6,22.65,7.84,36.4-7.07,40.06-7.45Z"/>
  <path class="st0" d="M286.59,499.54c-13.17,21.01-3.31,37.58-6.71,52.41-1.96,8.56-7.78,15.87-16.73,18.09-14.84,3.68-28.04-15.32-25.99-36.4.78-8,3.33-15.12,5.86-22.77,4.83-14.57,1.95-30-5.15-43.49-1.11-2.11-2.57-3.69-1.82-6.02,8.48,12.02,13.99,31.18,9.78,45.37l-5.28,17.76c-3.61,12.15-2.59,25.07,4.37,35.69,5.23,7.98,15.28,11.08,23.4,5.98,17.87-11.22,6.14-32.16,10.41-50.64,1.4-6.07,3.57-12.16,7.86-15.97Z"/>
  <path class="st0" d="M602.09,450.34c-9.75-5.98-18.64-8.32-28.85-1.14-11.42,8.03-14.35,22.11-9.67,35.6,11.07,19.43,7.69,43.26-7.85,58.97,3.16-7.03,6.74-10.32,10.14-20.1,3.89-11.17,3.52-22.82-1.71-33.6-8.84-18.25-4.18-37.99,14.63-45.63,8.07-3.28,17.95-.54,23.31,5.89Z"/>
  <path class="st0" d="M182.49,228.67c-21.18-25.34-26.81-62.45-17.93-94.52-7.77,2.12-11.79,8.04-16.21,9.25,1.25-3.24,9.89-8.91,15.32-10.68,3.06.85,1.77,5.79,1.15,8.05-2.48,8.96-2.17,17.53-2.2,26.83-.07,19.28,5.58,37.77,16.29,53.65,1.7,2.53,3.85,4.39,3.59,7.43Z"/>
  <path class="st0" d="M292.62,493.39c7.12-5.97,17.11-8.7,27.1-7.85,8.95.76,16.83,4.55,24.91,8l11.96,5.1c9.5,4.06,19.27-1.14,24.18-10.04,2.4-4.36,5.36-8.57,9-11.18l-13.04,19.24c-18.36,13.47-32.93-6.59-54.95-9.01-10.61-1.16-20.32,1.24-29.15,5.73Z"/>
  <path class="st0" d="M616.85,433.49c-3.78-.1-10.32-13.86-34.35-12.01-12.33.95-22.85,7.44-31.29,16.8-15.01,16.64-16.59,41.04-6.08,60.65,5.47,10.21,1.59,24.68-6.4,29.99.3-2.07,1.69-3.27,3.18-5.38,4.61-6.57,5.49-16.19,1.49-24.07-8.34-16.42-9.86-34.78-.34-52.41,7.31-13.55,22.11-25.62,39.49-27.51,13.76-1.49,26.02,3.95,34.31,13.95Z"/>
  <path class="st0" d="M138.48,355.74c2.86-.45,4.42,2.02,6.33,3.61l6.6,5.51c18.39,13.96,38.39,24.97,60.04,33.05,3.48,1.3,7.48-.7,9.51-2.43,4.7-4.01,4.28-11.57-.38-16.72-21.95-8.69-43.94-19.48-60.47-34.78,2.11-.23,3.14,1.13,4.79,2.44,15.35,12.06,32.25,21.22,50.53,28.29,7.32,2.83,12.15,8.3,9.9,16.99-1.35,5.18-8.49,10.07-14.8,7.66-26.26-10.03-51.77-24.88-72.05-43.61Z"/>
  <path class="st0" d="M553.07,546.41c-21.61,21.81-57.17,19.69-76.88-3.82,1.44-.15,2.76.58,3.69,1.74,5.46,6.83,12.82,10.71,21.09,13.13,3.2.94,6.08,2.14,9.69,2.15l14.04.03c9.1-2.03,17.37-5.6,24.42-11.61,1.26-1.07,2.19-1.97,3.95-1.6Z"/>
  <path class="st0" d="M499.71,531.78c-9.12-1.67-19.9-32.54-37.96-50.32-9.13-8.99-20.24-15.78-32.89-16.91s-25.02,2.07-34.8,10.44c-1.13.97-2.2,1.73-3.59,1.5,13.8-14.57,36.57-18.19,55-8.76,13.14,6.72,23.1,16.89,30.72,29.3l11.01,17.95c3.82,6.22,7.73,11.84,12.52,16.79Z"/>
  <path class="st0" d="M97.55,432.59c-10.39-4.83-8.8-32.07-10.15-37.96l-3.52-15.36c-1.72-7.49-6.79-13.6-12.97-18.01l-15.75-11.25c-1.13-.81-1.56-1.54-1.66-2.64l15.77,10.53c10.85,7.44,16.97,19.01,19.15,31.87.69,4.06,1.54,7.55,1.3,11.79-.64,11.2,2.39,21.93,7.82,31.02Z"/>
  <path class="st0" d="M537.96,529.43c-2.46,6.16-15.88,11-23.75,9.66-5.47-.94-11.19-2.17-13.67-6.42,14.4,8.56,24.36,5.46,37.42-3.24Z"/>
  <path class="st0" d="M474.54,540.63l-10.58-16.4c-5.43-8.41-9.63-17.07-15.34-24.9,5.04,1.95,14.86,20.71,20.14,30.15,2.14,3.82,5.05,7.07,5.78,11.14Z"/>
  <path class="st0" d="M137.85,354.54c-.51-.16-1.57-.37-2.23-1-7.18-6.9-13.88-14.02-19.26-21.85.32-.27,1.69-.31,2.01.13,4.91,6.8,10.31,12.76,16.47,18.54,1.4,1.32,2.56,2.66,3.01,4.18Z"/>
  <path class="st0" d="M537.93,358.53c-1.87,2.92-5.28,6.41-8.38,8.26-.33-2.46,2.22-3.65,3.97-5.36,1.42-1.39,2.4-3.38,4.41-2.9Z"/>
  <path class="st0" d="M147.96,331.55c-3.45-1.34-6.23-4.56-7.43-7.96,2.84,2.29,5.27,5.11,7.43,7.96Z"/>
  <path class="st0" d="M651.68,528.77c.85-2.58,2.72-4.85,5.16-6.2-.13,2.83-2.53,5.37-5.16,6.2Z"/>
  <path class="st0" d="M189.83,236.67c-2.67-1.71-5.12-4.22-6.12-7.28,3.05,1.04,4.88,4.37,6.12,7.28Z"/>
  <path class="st0" d="M626.48,178.74l-15.9-16.17c1.53-.06,2.62.88,3.86,2.12l10.55,10.59c1.08,1.08,1.66,2.09,1.49,3.46Z"/>
  <path class="st0" d="M292.05,494.63c-.59,1.96-2.36,3.84-4.33,4.28.32-2.3,2.06-3.94,4.33-4.28Z"/>
  <path class="st0" d="M196.86,243.68c-2.08-.72-3.75-2.23-4.18-4.38,2.13.42,4.07,2.17,4.18,4.38Z"/>
  <path class="st0" d="M159.79,342.73c-3.97-1.81-7.61-5.62-10.19-9.02l10.19,9.02Z"/>
  <path class="st0" d="M234.68,460.68c-2.01-.35-3.15-2.12-3.09-4.1,1.68.73,2.74,2.31,3.09,4.1Z"/>
  <path class="st0" d="M230.76,455.49c-1.94-.24-2.75-1.32-3.17-3.04,1.79.15,2.67,1.55,3.17,3.04Z"/>
  <path class="st0" d="M647.54,532.55c.28-1.07,1.53-1.52,1.98-2.13.36.73.14,1.56-.47,1.89-.44.25-1.11.16-1.5.24Z"/>
  <path class="st0" d="M510.74,88.56c-1.72-1.71-3.42-3.33-5.1-5,2.44.67,4.6,2.48,5.1,5Z"/>
  <path class="st0" d="M101.65,436.55c-.89-.02-1.92-.25-2.47-.99-.42-.57-.46-1.36-.54-2l3.01,3Z"/>
  <path class="st0" d="M86.69,186.53l-2.95,3.12c-.19-1.02.11-2.01.89-2.6.61-.46,1.48-.34,2.06-.52Z"/>
  <path class="st0" d="M504.65,82.58c-1.35-1.34-2.57-2.79-4.03-4.03,2.27-.05,4.07,1.76,4.03,4.03Z"/>
  <path class="st0" d="M51.68,345.56c-.93-.07-1.93-.23-2.54-.99-.43-.54-.53-1.36-.48-2.02l3.02,3.02Z"/>
  <path class="st0" d="M89.71,183.64c.24-.41.71-.75,1.05-1.06l-1.05,1.06Z"/>
  <path class="st0" d="M91.73,181.7l.99-1.13-.99,1.13Z"/>
  <path class="st2" d="M478.89,86.32l.82,1.09,4.58,6.51c5.48,5.68,10.66,11.59,14.29,18.69l7.09,13.86c2.9,5.66,1.39,12.17-3.62,15.05-4.52,2.6-12.45,2.07-14.83-3.4-6.7-15.41-15.9-28.74-28.68-39.48-.92-.77-1.9-1.11-3.11-.96-.87-.75-1.85-2-2.81-2.74.27-.62.15-2.16-.62-2.66l-19.56-12.59c-34.66-18.58-81.16-28.32-117.7-11.89-13.56,6.1-24.67,16.74-30.16,30.37-5.81,14.42-2.12,29.13,8.16,40.46,10.76,11.88,26.81,16.87,42.87,16.02,4.89-.26,8.83-.12,13.5-1.76,7.55-2.66,15.69-5.16,20.47-11.22.89-1.13,1.66-2.55,2.99-3.25.74.3,1.61.09,1.93-.48.23-.41.23-1.02.08-1.51.58-.56.97-1.67,2-1.83,1.8-.28,2.64-1.79,3.68-3.38,10.95-16.82,4.3-27.86,13.4-33.33,5.1-3.06,14.7-.49,15.65,5.07,2.68,15.68-7.09,38.46-19.07,50.27-.7.69-.87,1.75-.64,2.54-.54-.32-1.24.35-.8.91-2.39-.39-3.58,1.35-5.35,2.61l-9.92,7.03c-27.76,14.72-61.14,13.31-86.83-4.72-2.51-1.76-4.02-4.33-7.17-3.94l-3-2.88c.41-2.55-1.29-3.54-2.82-5.44-18.81-23.31-17.34-56.84,2.24-79.46,1.15-1.33,1.63-2.06,2.02-3.41.65-2.28,3.07-3.52,4.95-4.75l12.1-7.88c14.08-7.77,29.51-12.7,45.85-13.96l30.5.08c17.91,1.38,34.44,5.88,51.37,11.6l16.39,7.61c12.95,6.01,24.16,14.58,34.75,24.07,1.69,1.52,2.53,3.25,5.02,3.05Z"/>
  <path class="st0" d="M452.63,94.94c-30.63-23.72-69.37-36.19-108.42-32.99-21.25,1.74-41.43,10.09-53.44,27.67-12.59,18.43-7.57,42.64,11.06,54.77s49.58,11.11,67.75-2.72c-4.78,6.07-12.93,8.57-20.47,11.22-4.66,1.64-8.61,1.5-13.5,1.76-16.07.86-32.11-4.14-42.87-16.02-10.27-11.34-13.97-26.04-8.16-40.46,5.49-13.64,16.6-24.28,30.16-30.37,36.55-16.43,83.04-6.69,117.7,11.89l19.56,12.59c.76.49.89,2.04.62,2.66Z"/>
  <path class="st0" d="M478.89,86.32c-2.49.2-3.33-1.54-5.02-3.05-10.59-9.5-21.8-18.06-34.75-24.07l-16.39-7.61c-16.92-5.71-33.46-10.22-51.37-11.6l-30.5-.08c-16.35,1.26-31.78,6.19-45.85,13.96l-12.1,7.88c12.4-12.77,40.92-23.74,58.07-23.75h29.38c41.05,4,80.27,18.9,108.53,48.32Z"/>
  <path class="st0" d="M388.8,156.7c-28.57,28.6-81.03,28.07-109.27.99,3.14-.39,4.65,2.18,7.17,3.94,25.69,18.03,59.07,19.44,86.83,4.72l9.92-7.03c1.77-1.26,2.96-2.99,5.35-2.61Z"/>
  <path class="st0" d="M276.53,154.81c-24.83-23.81-23.68-64.76,1.43-88.31-.38,1.35-.87,2.08-2.02,3.41-19.58,22.63-21.05,56.15-2.24,79.46,1.53,1.9,3.23,2.89,2.82,5.44Z"/>
  <path class="st0" d="M455.44,97.69c1.21-.15,2.19.19,3.11.96,12.78,10.74,21.98,24.07,28.68,39.48,2.38,5.47,10.31,6,14.83,3.4,5.01-2.89,6.52-9.39,3.62-15.05l-7.09-13.86c-3.63-7.1-8.81-13.01-14.29-18.69l-4.58-6.51c1.73,2.29,4.13,4.21,6.47,6.7,9.38,9.98,17.24,21.68,21.96,34.53,2.38,6.48-1.29,13.05-6.67,15.15s-13.18.98-15.89-5.3c-6.93-16.06-16.96-29.5-30.14-40.8Z"/>
  <path class="st0" d="M389.6,155.79c-.24-.79-.07-1.85.64-2.54,11.98-11.82,21.75-34.59,19.07-50.27-.95-5.57-10.55-8.14-15.65-5.07-9.1,5.47-2.45,16.51-13.4,33.33-1.04,1.59-1.88,3.1-3.68,3.38,6.15-8.29,8.74-17.78,9.87-28.18.68-6.23,5.61-10.59,11.1-11.62,4.81-.9,11.24,2.21,13.26,7.68,4.87,13.17-8.47,42.75-21.21,53.3Z"/>
  <path class="st0" d="M372.57,138.43c.64-.34,1.45-1.43,2.01-1.99.16.48.16,1.1-.08,1.51-.33.57-1.19.78-1.93.48Z"/>
</svg>
