<?xml version="1.0" encoding="UTF-8"?>
<svg id="Layer_1" xmlns="http://www.w3.org/2000/svg" version="1.1" viewBox="0 0 389.99 231.52">
  <!-- Generator: Adobe Illustrator 30.6.0, SVG Export Plug-In . SVG Version: 2.1.4 Build 109)  -->
  <defs>
    <style>
      .st0 {
        fill: #0000ba;
      }

      .st0, .st1 {
        stroke: #fff;
        stroke-miterlimit: 10;
        stroke-width: 7px;
      }

      .st1 {
        fill: #fff;
      }
    </style>
  </defs>
  <path class="st0" d="M3.5,167.27l.04-13.47c3.24-30.3,26.56-54.41,56.58-59.61.04-56.71,49.22-97.74,103.56-89.69,25.34,3.76,49.34,19.31,63.16,42.66,20.39-12.23,44.55-13.6,66.39-2.46,17.93,9.15,32.21,27.53,35.56,49.35,34.84,5.64,60.3,36.44,57.49,71.8-2.75,34.61-32.23,62.07-67.28,62.08l-247.53.07c-35.05,0-64.39-26.52-67.97-60.74ZM363.94,161.21c.24-23.93-17.39-42.03-39.92-45.1-5.61-.77-11.13-.27-16.83-.37l-.14-12.72c-.2-17.38-11.29-32.47-25.95-39.21-16.34-7.51-35.46-5.29-48.12,6.83l-14.27,13.66-7.53-18.6c-13.28-29.9-45.83-45.56-77.42-37.79-30.56,7.52-52.83,36.08-50.95,68.37.38,6.61,1.81,12.74,2.62,19.47-6.16.1-12.19-.4-18.45.24-23.5,2.42-41.66,21.45-41.24,45.57.4,22.97,19.53,43.75,43.48,43.75h251.27c23.88,0,43.22-20.66,43.45-44.11Z"/>
  <path class="st1" d="M363.94,161.21c-.23,23.45-19.57,44.11-43.45,44.11H69.22c-23.96,0-43.08-20.78-43.48-43.75-.42-24.12,17.74-43.15,41.24-45.57,6.25-.64,12.29-.15,18.45-.24-.81-6.74-2.23-12.86-2.62-19.47-1.87-32.29,20.4-60.85,50.95-68.37,31.59-7.77,64.14,7.89,77.42,37.79l7.53,18.6,14.27-13.66c12.66-12.12,31.78-14.34,48.12-6.83,14.66,6.74,25.76,21.83,25.95,39.21l.14,12.72c5.71.11,11.22-.39,16.83.37,22.53,3.07,40.15,21.17,39.92,45.1Z"/>
</svg>
