<svg xmlns="http://www.w3.org/2000/svg" width="300" height="300" viewBox="0 0 300 300"><rect width="300" height="300" fill="#f4e6d3"/><rect x="-60" y="-40" width="26" height="380" fill="#0000ba" transform="rotate(18 150 150)"/><rect x="-12" y="-40" width="26" height="380" fill="#f2937c" transform="rotate(18 150 150)"/><rect x="36" y="-40" width="26" height="380" fill="#0000ba" transform="rotate(18 150 150)"/><rect x="84" y="-40" width="26" height="380" fill="#f2937c" transform="rotate(18 150 150)"/><rect x="132" y="-40" width="26" height="380" fill="#0000ba" transform="rotate(18 150 150)"/><rect x="180" y="-40" width="26" height="380" fill="#f2937c" transform="rotate(18 150 150)"/><rect x="228" y="-40" width="26" height="380" fill="#0000ba" transform="rotate(18 150 150)"/><rect x="276" y="-40" width="26" height="380" fill="#f2937c" transform="rotate(18 150 150)"/><rect x="324" y="-40" width="26" height="380" fill="#0000ba" transform="rotate(18 150 150)"/></svg>