<svg xmlns="http://www.w3.org/2000/svg" width="300" height="300" viewBox="0 0 300 300"><rect width="300" height="300" fill="#f2ecb8"/><circle cx="46" cy="46" r="14" fill="#3d0b2a"/><circle cx="98" cy="46" r="14" fill="#f27ba8"/><circle cx="150" cy="46" r="14" fill="#3d0b2a"/><circle cx="202" cy="46" r="14" fill="#f27ba8"/><circle cx="254" cy="46" r="14" fill="#3d0b2a"/><circle cx="46" cy="98" r="14" fill="#f27ba8"/><circle cx="98" cy="98" r="14" fill="#3d0b2a"/><circle cx="150" cy="98" r="14" fill="#f27ba8"/><circle cx="202" cy="98" r="14" fill="#3d0b2a"/><circle cx="254" cy="98" r="14" fill="#f27ba8"/><circle cx="46" cy="150" r="14" fill="#3d0b2a"/><circle cx="98" cy="150" r="14" fill="#f27ba8"/><circle cx="150" cy="150" r="14" fill="#3d0b2a"/><circle cx="202" cy="150" r="14" fill="#f27ba8"/><circle cx="254" cy="150" r="14" fill="#3d0b2a"/><circle cx="46" cy="202" r="14" fill="#f27ba8"/><circle cx="98" cy="202" r="14" fill="#3d0b2a"/><circle cx="150" cy="202" r="14" fill="#f27ba8"/><circle cx="202" cy="202" r="14" fill="#3d0b2a"/><circle cx="254" cy="202" r="14" fill="#f27ba8"/><circle cx="46" cy="254" r="14" fill="#3d0b2a"/><circle cx="98" cy="254" r="14" fill="#f27ba8"/><circle cx="150" cy="254" r="14" fill="#3d0b2a"/><circle cx="202" cy="254" r="14" fill="#f27ba8"/><circle cx="254" cy="254" r="14" fill="#3d0b2a"/></svg>