<svg xmlns="http://www.w3.org/2000/svg" width="300" height="300" viewBox="0 0 300 300"><rect width="300" height="300" fill="#12124d"/><circle cx="46" cy="46" r="14" fill="#f2b8d8"/><circle cx="98" cy="46" r="14" fill="#c9b8f2"/><circle cx="150" cy="46" r="14" fill="#f2b8d8"/><circle cx="202" cy="46" r="14" fill="#c9b8f2"/><circle cx="254" cy="46" r="14" fill="#f2b8d8"/><circle cx="46" cy="98" r="14" fill="#c9b8f2"/><circle cx="98" cy="98" r="14" fill="#f2b8d8"/><circle cx="150" cy="98" r="14" fill="#c9b8f2"/><circle cx="202" cy="98" r="14" fill="#f2b8d8"/><circle cx="254" cy="98" r="14" fill="#c9b8f2"/><circle cx="46" cy="150" r="14" fill="#f2b8d8"/><circle cx="98" cy="150" r="14" fill="#c9b8f2"/><circle cx="150" cy="150" r="14" fill="#f2b8d8"/><circle cx="202" cy="150" r="14" fill="#c9b8f2"/><circle cx="254" cy="150" r="14" fill="#f2b8d8"/><circle cx="46" cy="202" r="14" fill="#c9b8f2"/><circle cx="98" cy="202" r="14" fill="#f2b8d8"/><circle cx="150" cy="202" r="14" fill="#c9b8f2"/><circle cx="202" cy="202" r="14" fill="#f2b8d8"/><circle cx="254" cy="202" r="14" fill="#c9b8f2"/><circle cx="46" cy="254" r="14" fill="#f2b8d8"/><circle cx="98" cy="254" r="14" fill="#c9b8f2"/><circle cx="150" cy="254" r="14" fill="#f2b8d8"/><circle cx="202" cy="254" r="14" fill="#c9b8f2"/><circle cx="254" cy="254" r="14" fill="#f2b8d8"/></svg>