<?xml version="1.0" encoding="UTF-8"?>
<svg id="Layer_1" xmlns="http://www.w3.org/2000/svg" version="1.1" viewBox="0 0 1499.99 1500.02">
  <!-- Generator: Adobe Illustrator 30.6.0, SVG Export Plug-In . SVG Version: 2.1.4 Build 109)  -->
  <defs>
    <style>
      .st0 {
        fill: #fff;
      }

      .st1 {
        fill: #0000ba;
      }
    </style>
  </defs>
  <path class="st0" d="M774,0l1.01.94,20.92.47c377.12,22.51,679.41,324.4,702.64,701.67l.49,20.91.93,1.01v50l-.93,1.01-.49,20.93c-6.51,105.57-35.13,208.33-84.5,302.09-71.22,135.24-182.17,245.76-317.69,316.44-93.07,48.53-194.86,76.67-299.45,83.12l-19.82.53c-.5.01-2.59.56-2.12.9h-50l-1.01-.93-20.92-.5C325.83,1475.36,23.9,1173.04,1.4,795.92l-.5-19.75c0-.56-.56-2.65-.9-2.17l.17-47.92,1.23-22.02c5.91-105.92,35.02-209.05,84.54-303.08,68.3-129.7,173.14-236.71,301.4-307.68C484.92,39.31,592.92,7.59,704.08,1.4l22-1.23S774,0,774,0ZM215.27,815.7c13.71,21.33,34.96,33.69,59.35,35.65s47.5-4.93,66.13-20.63c32.42-27.77,40.52-72.32,32.73-113.29-4.13-21.74-14.5-41.19-31.03-55.91-38.46-34.25-102.64-28.95-129.21,17.29l-2.14-35.36-28.31.08v289.86l32.41.04.06-117.74h0ZM444.69,843.01c34.05,16.52,81.05,9.39,104.21-21.43,6.8,28.13,36.75,34.14,61.18,24.95l1.62-25.53c-6.6,1.36-13.13,2.35-19.96,1.39-5.64-.79-10.5-5.59-10.52-11.69l-.49-108.59c-.1-22.78-12.91-41.84-32.54-52.26-25.68-13.65-64.6-13.62-90.8-1.51-18.42,8.51-33.3,23.13-39.76,42.15l26.34,16.11c4.61-13.96,12.64-24.93,25.1-31.61,14.76-7.08,31.26-8.92,47.35-5.47,25.25,5.43,34.42,29.38,31.9,54.17l-79,15.67c-11.97,2.38-22.78,7.49-32.32,14.51-14.05,10.33-20.94,25.78-20.79,43.18.18,19.72,9.84,36.91,28.48,45.95h0ZM1028.7,831.75c13.64-11.91,20.1-28.69,19.21-46.77-1.37-27.75-21.29-41.06-47.22-46.59l-63.19-13.5c-10.65-2.27-18.01-10.31-20.19-19.09-2.66-10.73,1.13-20.52,9.27-27.24,7.39-6.11,16.6-8.85,26.09-10.06,26.62-3.41,55.69,7.56,65.16,34.1l27.26-17.93c-9.4-19.61-26.3-34.08-47.33-40.33-18.94-5.62-38.69-6.33-58.1-2.49-33.68,6.66-60.42,33.33-54.48,69.04,4.42,26.61,25.64,39.42,51.07,44.83l58.3,12.41c10.28,2.19,17.87,9.57,20.03,18.13,2.64,10.45-.65,20.16-8.74,26.64-14.39,11.52-37.78,12.13-56.1,8.44-21.42-4.32-39.12-17.81-48.71-38.03l-27.59,19.86c9.82,16.87,24.14,29.45,42,37.55,34.66,15.72,84.32,16.3,113.26-8.95v-.02ZM1168.59,821.51c-31.91-7.45-47.28-34.49-49.39-66.58h154.02c4.11-30.64.8-59.86-18.48-84.62-21.78-26.8-55.3-34.67-88.86-29.29-33.81,5.42-60.81,28.35-71.92,61.09-9.13,26.88-9.29,56.62-1.05,83.82,15.87,52.36,68.14,74.16,120.05,62.95,24.48-5.29,44.8-19.96,57.67-42.3l-25.5-15.13c-17.24,28.74-44.83,35.62-76.54,30.07h0ZM793.94,643.52v114.39c-.82,28.32-13.63,53.63-41.05,62.12-24.27,7.52-59.19,2.7-67.64-22.42-2.41-7.16-4.2-14.68-4.21-22.71l-.07-131.44-32.45.03.13,143.23c1.98,30.17,20.41,53.77,49.36,61.39,19.71,5.19,40.16,4.71,59.82-1.27,16.2-4.93,28.69-15.04,37.94-30.02l2.17,30.74,28.39-.07v-204.05l-32.4.08h.01ZM1372.89,824.5c-.37-15.33-11.29-25.51-25.87-25.86-15.61-.38-27.17,10.76-27.27,26.36-.1,15.36,10.84,26.6,26.27,26.79,15.49.19,27.26-11.13,26.87-27.29Z"/>
  <path class="st1" d="M215.27,815.7l-.06,117.74-32.41-.04v-289.86l28.31-.08,2.14,35.36c26.58-46.24,90.75-51.54,129.21-17.29,16.53,14.72,26.89,34.16,31.03,55.91,7.79,40.96-.31,85.51-32.73,113.29-18.63,15.7-41.86,22.57-66.13,20.63s-45.63-14.32-59.35-35.65h0ZM322.85,806.29c9.09-9.63,14.86-21.02,17.75-33.75,6.91-30.42,3.22-68.96-20.36-90.73-10.53-9.72-24-13.51-38.2-13.94-24.44-.73-45.74,11.67-57.02,33.29-12.94,24.81-12.95,60.61-1.48,86.13,10.69,23.78,33.41,37.49,59.53,35.92,14.98-.9,29.04-5.55,39.78-16.93h0Z"/>
  <path class="st1" d="M444.69,843.01c-18.64-9.04-28.3-26.23-28.48-45.95-.16-17.4,6.73-32.84,20.79-43.18,9.54-7.02,20.35-12.13,32.32-14.51l79-15.67c2.52-24.79-6.65-48.74-31.9-54.17-16.09-3.46-32.58-1.61-47.35,5.47-12.47,6.67-20.5,17.64-25.1,31.61l-26.34-16.11c6.46-19.02,21.33-33.64,39.76-42.15,26.2-12.11,65.12-12.13,90.8,1.51,19.63,10.43,32.44,29.48,32.54,52.26l.49,108.59c.03,6.1,4.88,10.89,10.52,11.69,6.83.96,13.37-.04,19.96-1.39l-1.62,25.53c-24.42,9.18-54.38,3.17-61.18-24.95-23.17,30.82-70.17,37.96-104.21,21.43h0ZM522.07,815.72c16.31-7.88,26.34-23.08,26.39-40.7l.07-24.52-66.15,13.74c-8.78,1.82-17.37,5.42-24.22,10.93-7.99,6.44-10.2,16.9-7.47,27.12,6.48,24.29,45.88,25.74,71.38,13.42h0Z"/>
  <path class="st1" d="M1168.59,821.51c31.71,5.55,59.3-1.33,76.54-30.07l25.5,15.13c-12.87,22.34-33.19,37.01-57.67,42.3-51.91,11.21-104.18-10.59-120.05-62.95-8.24-27.19-8.08-56.93,1.05-83.82,11.12-32.74,38.11-55.67,71.92-61.09,33.56-5.38,67.07,2.5,88.86,29.29,19.27,24.76,22.59,53.98,18.48,84.62h-154.02c2.11,32.09,17.48,59.13,49.39,66.58h0ZM1242.13,725.99l-2.11-16.87c-8.57-33.49-39.35-46.1-72.3-39.56-27.83,6.35-43.24,28.63-47.35,56.44h121.76Z"/>
  <path class="st1" d="M1028.7,831.75c-28.94,25.25-78.59,24.67-113.26,8.95-17.86-8.1-32.18-20.68-42-37.55l27.59-19.86c9.59,20.22,27.3,33.71,48.71,38.03,18.32,3.69,41.71,3.08,56.1-8.44,8.09-6.48,11.39-16.19,8.74-26.64-2.16-8.56-9.75-15.94-20.03-18.13l-58.3-12.41c-25.43-5.41-46.65-18.22-51.07-44.83-5.94-35.71,20.8-62.38,54.48-69.04,19.41-3.84,39.16-3.13,58.1,2.49,21.03,6.24,37.93,20.71,47.33,40.33l-27.26,17.93c-9.47-26.54-38.54-37.51-65.16-34.1-9.5,1.22-18.7,3.95-26.09,10.06-8.14,6.73-11.94,16.51-9.27,27.24,2.18,8.78,9.54,16.82,20.19,19.09l63.19,13.5c25.93,5.54,45.85,18.85,47.22,46.59.89,18.08-5.57,34.86-19.21,46.77v.02Z"/>
  <path class="st1" d="M793.94,643.52l32.39-.08v204.05l-28.38.07-2.17-30.74c-9.25,14.99-21.74,25.09-37.94,30.02-19.66,5.99-40.11,6.46-59.82,1.27-28.95-7.62-47.39-31.22-49.36-61.39l-.13-143.23,32.45-.03.07,131.44c0,8.03,1.8,15.55,4.21,22.71,8.45,25.12,43.36,29.94,67.64,22.42,27.42-8.49,40.22-33.8,41.04-62.12v-114.39h0Z"/>
  <path class="st1" d="M1373.16,824.23c.39,16.15-11.38,27.48-26.87,27.29-15.43-.19-26.37-11.43-26.27-26.79.1-15.6,11.66-26.74,27.27-26.36,14.57.35,25.5,10.53,25.87,25.86Z"/>
  <path class="st0" d="M322.85,806.29c-10.74,11.38-24.79,16.03-39.78,16.93-26.12,1.58-48.83-12.13-59.53-35.92-11.48-25.53-11.46-61.33,1.48-86.13,11.27-21.62,32.58-34.02,57.02-33.29,14.2.42,27.67,4.22,38.2,13.94,23.58,21.76,27.27,60.31,20.36,90.73-2.89,12.73-8.66,24.12-17.75,33.75h0Z"/>
  <path class="st0" d="M522.07,815.72c-25.5,12.32-64.89,10.86-71.38-13.42-2.73-10.22-.52-20.68,7.47-27.12,6.85-5.52,15.44-9.11,24.22-10.93l66.15-13.74-.07,24.52c-.05,17.62-10.09,32.82-26.39,40.7h0Z"/>
  <path class="st0" d="M1242.13,725.99h-121.75c4.1-27.8,19.52-50.08,47.35-56.43,32.95-6.54,63.73,6.07,72.3,39.56l2.11,16.87h-.01Z"/>
</svg>